<?xml version="1.0" encoding="UTF-8"?>
<!DOCTYPE svg
PUBLIC "-//W3C//DTD SVG 1.1//EN"
       "http://www.w3.org/Graphics/SVG/1.1/DTD/svg11.dtd">
<svg version="1.1" xmlns="http://www.w3.org/2000/svg" xmlns:xlink="http://www.w3.org/1999/xlink" viewBox="0 0 28 28">
 <g>
  <rect height="18.2715" opacity="0" width="24.3652" x="0" y="0"/>
  <path transform="translate(2 4)" d="M3.06641 18.2617L20.9375 18.2617C22.9883 18.2617 24.0039 17.2461 24.0039 15.2344L24.0039 3.02734C24.0039 1.01562 22.9883 0 20.9375 0L3.06641 0C1.02539 0 0 1.00586 0 3.02734L0 15.2344C0 17.2559 1.02539 18.2617 3.06641 18.2617ZM3.08594 16.6895C2.10938 16.6895 1.57227 16.1621 1.57227 15.1562L1.57227 3.10547C1.57227 2.08984 2.10938 1.57227 3.08594 1.57227L20.918 1.57227C21.8848 1.57227 22.4316 2.08984 22.4316 3.10547L22.4316 15.1562C22.4316 16.1621 21.8848 16.6895 20.918 16.6895Z" fill="#ffffff" fill-opacity="0.85"/>
  <path transform="translate(2 4)" d="M3.75977 15.3516L20.2441 15.3516C20.791 15.3516 21.1035 15.0293 21.1035 14.4824L21.1035 3.7793C21.1035 3.22266 20.791 2.90039 20.2441 2.90039L3.75977 2.90039C3.21289 2.90039 2.91016 3.22266 2.91016 3.7793L2.91016 14.4824C2.91016 15.0293 3.21289 15.3516 3.75977 15.3516ZM4.45312 14.0723C4.27734 14.0723 4.18945 13.9844 4.18945 13.8086L4.18945 4.45312C4.18945 4.26758 4.27734 4.17969 4.45312 4.17969L19.5508 4.17969C19.7363 4.17969 19.8242 4.26758 19.8242 4.45312L19.8242 13.8086C19.8242 13.9844 19.7363 14.0723 19.5508 14.0723Z" fill="#afafaf" fill-opacity="0.85"/>
 </g>
</svg>
