<svg fill="none" height="24" viewBox="0 0 24 24" width="24" xmlns="http://www.w3.org/2000/svg"><path d="m8.9902 19.9818.03717.4986zm-.03718-.4986c-.14946.0111-.30053.0168-.45302.0168v1c.17732 0 .35319-.0066.52737-.0196zm-.45302.0168c-3.31371 0-6-2.6863-6-6h-1c0 3.866 3.13401 7 7 7zm-6-6c0-3.3137 2.68629-6 6-6v-1c-3.86599 0-7 3.13401-7 7zm6-6c2.4554 0 4.5673 1.47495 5.4962 3.5892l.9155-.4022c-1.0826-2.46436-3.5454-4.187-6.4117-4.187zm7.5 5c1.933 0 3.5 1.567 3.5 3.5h1c0-2.4853-2.0147-4.5-4.5-4.5zm3.5 3.5c0 1.933-1.567 3.5-3.5 3.5v1c2.4853 0 4.5-2.0147 4.5-4.5zm-3.5 3.5h-6.99089v1h6.99089zm-6.99089 0c.2711 0 .49089.2198.49089.4909h-1c0 .2812.22795.5091.50911.5091zm4.98709-8.4108c.3348.7622 1.0686 1.4108 2.0038 1.4108v-1c-.4408 0-.8697-.3154-1.0883-.813zm-4.96883 9.3912c-.28425.0212-.52737-.2036-.52737-.4895h1c0-.2965-.25215-.5297-.54698-.5077z" fill="#bfbfbf"/><path d="m19.5355 13.5355c.5033-.5032.8933-1.1081 1.144-1.7742.2507-.6662.3563-1.3781.3098-2.08832-.0466-.7102-.2442-1.40228-.5797-2.02996-.3355-.62769-.8011-1.17652-1.3658-1.60979-.5646-.43327-1.2153-.741-1.9084-.90261-.6932-.16162-1.4128-.1734-2.1109-.03455-.698.13885-1.3584.42513-1.9369.8397-.5785.41456-1.0619.94786-1.4177 1.56423" stroke="#ffffff"/></svg>